<?xml version="1.0" encoding="utf-8"?>
<!-- Svg Vector Icons : http://www.onlinewebfonts.com/icon -->
<!DOCTYPE svg PUBLIC "-//W3C//DTD SVG 1.1//EN" "http://www.w3.org/Graphics/SVG/1.1/DTD/svg11.dtd">
<svg version="1.1" xmlns="http://www.w3.org/2000/svg" xmlns:xlink="http://www.w3.org/1999/xlink" x="0px" y="0px" viewBox="0 0 1000 1000" enable-background="new 0 0 1000 1000" xml:space="preserve">
<metadata> Svg Vector Icons : http://www.onlinewebfonts.com/icon </metadata>
<g><path d="M54.5,700.5H10v245C10,970,29.9,990,54.5,990h245v-44.5h-245V700.5z M54.5,54.5h245V10h-245C29.9,10,10,29.9,10,54.5v245h44.5V54.5z M945.4,945.5h-245V990h245c24.6,0,44.5-20,44.5-44.5v-245h-44.5L945.4,945.5L945.4,945.5z M945.4,10h-245v44.5h245v245H990v-245C990,29.9,970.1,10,945.4,10z M967.7,477.7H32.3C20,477.7,10,487.7,10,500c0,12.3,10,22.3,22.3,22.3h935.5c12.3,0,22.3-10,22.3-22.3C990,487.7,980,477.7,967.7,477.7z"/></g>
</svg>